<svg width="512" height="512" viewBox="0 0 512 512" fill="none" xmlns="http://www.w3.org/2000/svg">
<circle cx="256" cy="261.12" r="250.88" fill="white"/>
<path fill-rule="evenodd" clip-rule="evenodd" d="M351.295 493.676C445.487 455.875 512 363.705 512 256C512 114.615 397.385 0 256 0C114.615 0 0 114.615 0 256C0 363.822 66.6581 456.076 161.013 493.799L170.763 391.421H160.418C150.952 391.421 143.278 383.747 143.278 374.281C143.278 365.333 150.132 357.9 159.059 357.284C182.372 355.676 226.692 352.941 258.564 352.93L258.75 352.849C258.75 352.849 258.938 352.86 259.298 352.882C259.509 352.895 259.778 352.912 260.103 352.932C291.882 353.007 335.411 355.696 358.441 357.284C367.368 357.9 374.222 365.333 374.222 374.281C374.222 383.747 366.549 391.421 357.082 391.421H346.719C345.249 403.455 347.389 442.747 351.295 493.676ZM273.029 511.443C274.407 507.289 274.854 500.455 275.472 488.915C276.961 464.596 275.472 460.129 266.538 455.166C249.167 445.736 236.76 456.655 236.76 482.463C236.76 493.758 238.098 506.391 239.506 511.477C244.96 511.824 250.459 512 256 512C261.722 512 267.401 511.812 273.029 511.443ZM328.25 316.561C356.174 302.446 374.222 277.371 374.222 239.121C374.222 174.385 322.523 121.905 258.75 121.905C194.976 121.905 143.277 174.385 143.277 239.121C143.277 277.585 161.529 302.726 189.72 316.797C194.732 294.83 200.266 250.665 203.98 215.382L258.967 193.387L313.954 215.382C313.954 215.382 322.505 288.068 328.25 316.561ZM286.242 264.856C286.242 280.04 273.933 292.349 258.748 292.349C243.564 292.349 231.255 280.04 231.255 264.856C231.255 249.672 243.564 237.362 258.748 237.362C273.933 237.362 286.242 249.672 286.242 264.856Z" fill="#E9560D"/>
</svg>
